<svg xmlns="http://www.w3.org/2000/svg" xmlns:xlink="http://www.w3.org/1999/xlink" width="500" zoomAndPan="magnify" viewBox="0 0 375 374.999991" height="500" preserveAspectRatio="xMidYMid meet" version="1.0"><defs><g/><clipPath id="3e07d2adb5"><path d="M 209.351562 120.257812 L 257 120.257812 L 257 172 L 209.351562 172 Z M 209.351562 120.257812 " clip-rule="nonzero"/></clipPath></defs><path fill="#000000" d="M 251.644531 160.613281 C 251.757812 160.949219 251.867188 161.285156 251.980469 161.621094 L 254.277344 167.921875 C 254.671875 167.9375 255.066406 167.957031 255.460938 167.980469 C 276.710938 169.25 296.84375 180.710938 308.457031 200.003906 C 308.226562 199.492188 307.992188 198.988281 307.75 198.476562 C 307.402344 197.734375 307.03125 196.992188 306.652344 196.257812 C 303.175781 189.589844 298.730469 183.75 293.566406 178.832031 C 282.96875 168.730469 269.367188 162.507812 255.070312 160.90625 C 253.933594 160.777344 252.789062 160.679688 251.644531 160.613281 Z M 251.644531 160.613281 " fill-opacity="1" fill-rule="evenodd"/><g clip-path="url(#3e07d2adb5)"><path fill="#5ce1e6" d="M 209.445312 145.972656 C 209.558594 146.289062 209.828125 146.589844 210.261719 146.863281 C 211.289062 147.535156 213.191406 148.085938 215.699219 148.527344 C 215.789062 148.546875 215.878906 148.558594 215.960938 148.570312 C 217.433594 148.820312 219.09375 149.035156 220.894531 149.210938 C 222.300781 149.339844 223.789062 149.457031 225.347656 149.546875 L 226.984375 151.808594 L 230.136719 156.148438 L 232.382812 159.238281 L 232.390625 159.234375 L 236.367188 164.726562 L 238.746094 168 L 239.585938 169.140625 L 240.535156 170.449219 L 240.800781 170.820312 C 241.296875 171.386719 242.023438 171.75 242.832031 171.75 C 244.3125 171.75 245.511719 170.546875 245.511719 169.066406 C 245.511719 168.917969 245.503906 168.773438 245.476562 168.632812 C 245.335938 168.277344 245.191406 167.921875 245.054688 167.5625 C 245.015625 167.472656 244.980469 167.378906 244.945312 167.285156 C 244.894531 167.164062 244.839844 167.039062 244.792969 166.914062 L 242.199219 159.8125 C 241.179688 156.792969 240.253906 153.761719 239.429688 150.746094 C 239.402344 150.640625 239.371094 150.53125 239.339844 150.425781 L 256.332031 150.425781 L 256.332031 142.890625 C 254.886719 142.617188 253.441406 142.382812 251.984375 142.183594 C 249.6875 141.875 247.375 141.652344 245.054688 141.527344 L 239.339844 141.527344 C 239.351562 141.488281 239.363281 141.453125 239.375 141.414062 C 240.214844 138.328125 241.160156 135.230469 242.199219 132.140625 L 244.457031 125.953125 L 244.792969 125.039062 C 244.839844 124.914062 244.894531 124.792969 244.945312 124.664062 C 244.980469 124.574219 245.015625 124.480469 245.054688 124.386719 C 245.195312 124.035156 245.335938 123.671875 245.476562 123.316406 C 245.5 123.175781 245.511719 123.035156 245.511719 122.886719 C 245.511719 121.402344 244.3125 120.203125 242.832031 120.203125 C 242.023438 120.203125 241.296875 120.566406 240.800781 121.132812 L 240.535156 121.503906 L 239.585938 122.808594 L 238.746094 123.949219 L 236.859375 126.542969 L 236.367188 127.222656 L 232.390625 132.710938 L 232.382812 132.710938 L 230.136719 135.800781 L 225.347656 142.398438 C 223.789062 142.492188 222.300781 142.601562 220.894531 142.738281 C 219.09375 142.910156 217.433594 143.125 215.960938 143.378906 C 215.882812 143.386719 215.789062 143.402344 215.699219 143.417969 C 213.191406 143.855469 211.285156 144.410156 210.261719 145.082031 C 209.828125 145.359375 209.558594 145.65625 209.445312 145.972656 Z M 209.445312 145.972656 " fill-opacity="1" fill-rule="evenodd"/></g><path fill="#5ce1e6" d="M 235.976562 141.527344 C 237.109375 141.464844 238.242188 141.425781 239.375 141.410156 C 241.273438 141.386719 243.167969 141.425781 245.054688 141.527344 C 247.375 141.652344 249.6875 141.871094 251.984375 142.183594 C 253.4375 142.378906 254.886719 142.617188 256.332031 142.890625 C 281.140625 147.574219 303.628906 163.183594 316.191406 187.308594 C 325.433594 205.066406 327.8125 224.582031 324.277344 242.824219 C 324.316406 242.441406 324.351562 242.054688 324.371094 241.679688 L 324.417969 241.078125 C 324.453125 240.566406 324.488281 240.046875 324.515625 239.53125 C 324.519531 239.351562 324.535156 239.167969 324.539062 238.984375 C 324.550781 238.75 324.5625 238.515625 324.570312 238.277344 C 324.570312 238.246094 324.570312 238.214844 324.570312 238.183594 C 324.578125 237.980469 324.589844 237.773438 324.597656 237.570312 C 324.597656 237.503906 324.597656 237.4375 324.597656 237.363281 C 324.601562 237.25 324.605469 237.132812 324.609375 237.019531 C 324.617188 236.644531 324.625 236.265625 324.632812 235.882812 L 324.632812 235.867188 C 324.632812 235.671875 324.632812 235.460938 324.632812 235.261719 L 324.632812 234.929688 C 324.632812 188.429688 286.941406 150.738281 240.441406 150.738281 C 240.105469 150.738281 239.765625 150.738281 239.429688 150.742188 C 239.398438 150.636719 239.367188 150.53125 239.339844 150.421875 L 252.003906 150.421875 C 252 150.421875 251.988281 150.417969 251.980469 150.417969 C 251.976562 150.417969 251.972656 150.417969 251.96875 150.417969 C 251.792969 150.394531 251.613281 150.378906 251.433594 150.355469 C 251.007812 150.308594 250.589844 150.265625 250.167969 150.230469 C 249.945312 150.203125 249.734375 150.1875 249.519531 150.167969 C 249.121094 150.136719 248.730469 150.101562 248.335938 150.078125 C 248.117188 150.0625 247.898438 150.042969 247.671875 150.035156 C 247.265625 150.007812 246.859375 149.980469 246.449219 149.960938 C 246.25 149.957031 246.054688 149.945312 245.855469 149.941406 C 245.316406 149.914062 244.78125 149.898438 244.238281 149.890625 C 244.175781 149.890625 244.109375 149.882812 244.042969 149.882812 C 243.445312 149.878906 242.839844 149.867188 242.234375 149.867188 C 242.046875 149.878906 241.855469 149.878906 241.667969 149.882812 C 241.246094 149.890625 240.832031 149.894531 240.414062 149.90625 C 240.191406 149.90625 239.96875 149.917969 239.742188 149.929688 C 239.355469 149.945312 238.964844 149.957031 238.570312 149.976562 C 238.347656 149.992188 238.117188 149.996094 237.902344 150.011719 C 237.476562 150.039062 237.0625 150.066406 236.648438 150.09375 C 236.617188 150.09375 236.585938 150.097656 236.554688 150.097656 C 235.167969 147.097656 233.324219 144.339844 231.113281 141.921875 C 232.738281 141.746094 234.359375 141.613281 235.976562 141.527344 Z M 235.976562 141.527344 " fill-opacity="1" fill-rule="evenodd"/><g fill="#000000" fill-opacity="1"><g transform="translate(35.559865, 230.103129)"><g><path d="M 36.296875 -27.9375 C 39.359375 -27.363281 41.878906 -25.828125 43.859375 -23.328125 C 45.835938 -20.835938 46.828125 -17.976562 46.828125 -14.75 C 46.828125 -11.832031 46.109375 -9.269531 44.671875 -7.0625 C 43.242188 -4.851562 41.175781 -3.125 38.46875 -1.875 C 35.769531 -0.625 32.570312 0 28.875 0 L 5.390625 0 L 5.390625 -54.484375 L 27.859375 -54.484375 C 31.554688 -54.484375 34.742188 -53.882812 37.421875 -52.6875 C 40.097656 -51.488281 42.125 -49.820312 43.5 -47.6875 C 44.882812 -45.550781 45.578125 -43.128906 45.578125 -40.421875 C 45.578125 -37.253906 44.726562 -34.601562 43.03125 -32.46875 C 41.34375 -30.332031 39.097656 -28.820312 36.296875 -27.9375 Z M 16.3125 -32 L 26.296875 -32 C 28.898438 -32 30.90625 -32.582031 32.3125 -33.75 C 33.71875 -34.925781 34.421875 -36.609375 34.421875 -38.796875 C 34.421875 -40.972656 33.71875 -42.660156 32.3125 -43.859375 C 30.90625 -45.054688 28.898438 -45.65625 26.296875 -45.65625 L 16.3125 -45.65625 Z M 27.3125 -8.890625 C 29.96875 -8.890625 32.035156 -9.515625 33.515625 -10.765625 C 35.003906 -12.015625 35.75 -13.785156 35.75 -16.078125 C 35.75 -18.421875 34.96875 -20.253906 33.40625 -21.578125 C 31.84375 -22.898438 29.734375 -23.5625 27.078125 -23.5625 L 16.3125 -23.5625 L 16.3125 -8.890625 Z M 27.3125 -8.890625 "/></g></g></g><g fill="#000000" fill-opacity="1"><g transform="translate(82.701179, 230.103129)"><g><path d="M 16.15625 -54.484375 L 16.15625 -20.765625 C 16.15625 -17.066406 17.117188 -14.238281 19.046875 -12.28125 C 20.972656 -10.332031 23.675781 -9.359375 27.15625 -9.359375 C 30.695312 -9.359375 33.429688 -10.332031 35.359375 -12.28125 C 37.285156 -14.238281 38.25 -17.066406 38.25 -20.765625 L 38.25 -54.484375 L 49.25 -54.484375 L 49.25 -20.84375 C 49.25 -16.207031 48.242188 -12.289062 46.234375 -9.09375 C 44.234375 -5.894531 41.554688 -3.488281 38.203125 -1.875 C 34.847656 -0.257812 31.113281 0.546875 27 0.546875 C 22.945312 0.546875 19.265625 -0.257812 15.953125 -1.875 C 12.648438 -3.488281 10.035156 -5.894531 8.109375 -9.09375 C 6.191406 -12.289062 5.234375 -16.207031 5.234375 -20.84375 L 5.234375 -54.484375 Z M 16.15625 -54.484375 "/></g></g></g><g fill="#000000" fill-opacity="1"><g transform="translate(134.057128, 230.103129)"><g><path d="M 33.484375 0 L 21.46875 -21.234375 L 16.3125 -21.234375 L 16.3125 0 L 5.390625 0 L 5.390625 -54.484375 L 25.828125 -54.484375 C 30.046875 -54.484375 33.632812 -53.738281 36.59375 -52.25 C 39.5625 -50.769531 41.785156 -48.765625 43.265625 -46.234375 C 44.753906 -43.710938 45.5 -40.894531 45.5 -37.78125 C 45.5 -34.1875 44.457031 -30.941406 42.375 -28.046875 C 40.289062 -25.160156 37.195312 -23.175781 33.09375 -22.09375 L 46.125 0 Z M 16.3125 -29.421875 L 25.4375 -29.421875 C 28.40625 -29.421875 30.617188 -30.132812 32.078125 -31.5625 C 33.535156 -33 34.265625 -34.992188 34.265625 -37.546875 C 34.265625 -40.035156 33.535156 -41.96875 32.078125 -43.34375 C 30.617188 -44.726562 28.40625 -45.421875 25.4375 -45.421875 L 16.3125 -45.421875 Z M 16.3125 -29.421875 "/></g></g></g><g fill="#000000" fill-opacity="1"><g transform="translate(181.042357, 230.103129)"><g><path d="M 38.796875 -10.375 L 17.09375 -10.375 L 13.5 0 L 2.03125 0 L 21.625 -54.5625 L 34.34375 -54.5625 L 53.9375 0 L 42.375 0 Z M 35.828125 -19.125 L 27.9375 -41.90625 L 20.0625 -19.125 Z M 35.828125 -19.125 "/></g></g></g><g fill="#000000" fill-opacity="1"><g transform="translate(233.881245, 230.103129)"><g><path d="M 45.96875 9.59375 L 37.703125 -0.3125 C 35.410156 0.257812 33.066406 0.546875 30.671875 0.546875 C 25.578125 0.546875 20.894531 -0.648438 16.625 -3.046875 C 12.351562 -5.441406 8.96875 -8.757812 6.46875 -13 C 3.976562 -17.238281 2.734375 -22.035156 2.734375 -27.390625 C 2.734375 -32.703125 3.976562 -37.476562 6.46875 -41.71875 C 8.96875 -45.957031 12.351562 -49.269531 16.625 -51.65625 C 20.894531 -54.050781 25.578125 -55.25 30.671875 -55.25 C 35.828125 -55.25 40.523438 -54.050781 44.765625 -51.65625 C 49.003906 -49.269531 52.359375 -45.957031 54.828125 -41.71875 C 57.296875 -37.476562 58.53125 -32.703125 58.53125 -27.390625 C 58.53125 -22.554688 57.503906 -18.144531 55.453125 -14.15625 C 53.398438 -10.175781 50.601562 -6.941406 47.0625 -4.453125 L 59.546875 9.59375 Z M 13.96875 -27.390625 C 13.96875 -23.753906 14.671875 -20.554688 16.078125 -17.796875 C 17.484375 -15.035156 19.445312 -12.910156 21.96875 -11.421875 C 24.488281 -9.941406 27.390625 -9.203125 30.671875 -9.203125 C 33.953125 -9.203125 36.835938 -9.941406 39.328125 -11.421875 C 41.828125 -12.910156 43.78125 -15.035156 45.1875 -17.796875 C 46.59375 -20.554688 47.296875 -23.753906 47.296875 -27.390625 C 47.296875 -31.035156 46.59375 -34.222656 45.1875 -36.953125 C 43.78125 -39.679688 41.828125 -41.773438 39.328125 -43.234375 C 36.835938 -44.691406 33.953125 -45.421875 30.671875 -45.421875 C 27.390625 -45.421875 24.488281 -44.691406 21.96875 -43.234375 C 19.445312 -41.773438 17.484375 -39.679688 16.078125 -36.953125 C 14.671875 -34.222656 13.96875 -31.035156 13.96875 -27.390625 Z M 13.96875 -27.390625 "/></g></g></g><g fill="#5ce1e6" fill-opacity="1"><g transform="translate(197.313889, 241.923236)"><g><path d="M 6.359375 -1.828125 L 2.609375 -1.828125 L 1.96875 0 L 0.4375 0 L 3.640625 -8.953125 L 5.34375 -8.953125 L 8.53125 0 L 7 0 Z M 5.9375 -3.015625 L 4.484375 -7.171875 L 3.015625 -3.015625 Z M 5.9375 -3.015625 "/></g></g></g><g fill="#5ce1e6" fill-opacity="1"><g transform="translate(208.204294, 241.923236)"><g><path d="M 2.4375 -1.1875 L 5.453125 -1.1875 L 5.453125 0 L 0.96875 0 L 0.96875 -8.9375 L 2.4375 -8.9375 Z M 2.4375 -1.1875 "/></g></g></g><g fill="#5ce1e6" fill-opacity="1"><g transform="translate(215.842266, 241.923236)"><g><path d="M 2.4375 -1.1875 L 5.453125 -1.1875 L 5.453125 0 L 0.96875 0 L 0.96875 -8.9375 L 2.4375 -8.9375 Z M 2.4375 -1.1875 "/></g></g></g><g fill="#5ce1e6" fill-opacity="1"><g transform="translate(223.480237, 241.923236)"><g><path d="M 2.4375 -8.9375 L 2.4375 0 L 0.96875 0 L 0.96875 -8.9375 Z M 2.4375 -8.9375 "/></g></g></g><g fill="#5ce1e6" fill-opacity="1"><g transform="translate(228.804225, 241.923236)"><g><path d="M 2.4375 -7.75 L 2.4375 -5.125 L 5.515625 -5.125 L 5.515625 -3.9375 L 2.4375 -3.9375 L 2.4375 -1.203125 L 5.90625 -1.203125 L 5.90625 0 L 0.96875 0 L 0.96875 -8.953125 L 5.90625 -8.953125 L 5.90625 -7.75 Z M 2.4375 -7.75 "/></g></g></g><g fill="#5ce1e6" fill-opacity="1"><g transform="translate(237.470632, 241.923236)"><g><path d="M 8.3125 0 L 6.84375 0 L 2.4375 -6.671875 L 2.4375 0 L 0.96875 0 L 0.96875 -8.953125 L 2.4375 -8.953125 L 6.84375 -2.28125 L 6.84375 -8.953125 L 8.3125 -8.953125 Z M 8.3125 0 "/></g></g></g><g fill="#5ce1e6" fill-opacity="1"><g transform="translate(248.669568, 241.923236)"><g><path d="M 0.46875 -4.484375 C 0.46875 -5.359375 0.671875 -6.140625 1.078125 -6.828125 C 1.492188 -7.523438 2.050781 -8.066406 2.75 -8.453125 C 3.445312 -8.847656 4.210938 -9.046875 5.046875 -9.046875 C 5.992188 -9.046875 6.835938 -8.8125 7.578125 -8.34375 C 8.316406 -7.882812 8.851562 -7.222656 9.1875 -6.359375 L 7.4375 -6.359375 C 7.195312 -6.835938 6.867188 -7.191406 6.453125 -7.421875 C 6.046875 -7.648438 5.578125 -7.765625 5.046875 -7.765625 C 4.453125 -7.765625 3.921875 -7.628906 3.453125 -7.359375 C 2.992188 -7.097656 2.632812 -6.71875 2.375 -6.21875 C 2.113281 -5.726562 1.984375 -5.148438 1.984375 -4.484375 C 1.984375 -3.828125 2.113281 -3.25 2.375 -2.75 C 2.632812 -2.25 2.992188 -1.863281 3.453125 -1.59375 C 3.921875 -1.332031 4.453125 -1.203125 5.046875 -1.203125 C 5.578125 -1.203125 6.046875 -1.316406 6.453125 -1.546875 C 6.867188 -1.773438 7.195312 -2.125 7.4375 -2.59375 L 9.1875 -2.59375 C 8.851562 -1.738281 8.316406 -1.078125 7.578125 -0.609375 C 6.835938 -0.148438 5.992188 0.078125 5.046875 0.078125 C 4.203125 0.078125 3.429688 -0.113281 2.734375 -0.5 C 2.046875 -0.894531 1.492188 -1.4375 1.078125 -2.125 C 0.671875 -2.820312 0.46875 -3.609375 0.46875 -4.484375 Z M 0.46875 -4.484375 "/></g></g></g><g fill="#5ce1e6" fill-opacity="1"><g transform="translate(260.536988, 241.923236)"><g><path d="M 2.4375 -7.75 L 2.4375 -5.125 L 5.515625 -5.125 L 5.515625 -3.9375 L 2.4375 -3.9375 L 2.4375 -1.203125 L 5.90625 -1.203125 L 5.90625 0 L 0.96875 0 L 0.96875 -8.953125 L 5.90625 -8.953125 L 5.90625 -7.75 Z M 2.4375 -7.75 "/></g></g></g></svg>